<svg width="760" height="520" viewBox="0 0 760 520" fill="none" xmlns="http://www.w3.org/2000/svg">
  <rect width="760" height="520" rx="24" fill="#F5F5F0"/>
  
  <!-- Document Background -->
  <rect x="180" y="40" width="400" height="440" rx="20" fill="white" stroke="#E5E3DF" stroke-width="2"/>
  
  <!-- Header Bar -->
  <rect x="180" y="40" width="400" height="72" rx="20" fill="#1A2744"/>
  <rect x="180" y="92" width="400" height="20" fill="#1A2744"/>
  <circle cx="220" cy="76" r="16" fill="rgba(255,255,255,0.15)"/>
  <path d="M214 76l4 4 8-8" stroke="white" stroke-width="2" stroke-linecap="round" stroke-linejoin="round"/>
  <rect x="244" y="68" width="120" height="8" rx="4" fill="rgba(255,255,255,0.6)"/>
  <rect x="244" y="82" width="80" height="6" rx="3" fill="rgba(255,255,255,0.3)"/>
  
  <!-- Approved Stamp -->
  <g transform="translate(440, 140) rotate(12)">
    <rect x="-60" y="-24" width="120" height="48" rx="8" fill="none" stroke="#2D7A5F" stroke-width="3" stroke-dasharray="4,3"/>
    <text x="0" y="6" text-anchor="middle" fill="#2D7A5F" font-size="18" font-weight="700" font-family="system-ui" letter-spacing="0.15em">APPROVED</text>
  </g>
  
  <!-- Document Lines -->
  <rect x="220" y="140" width="180" height="8" rx="4" fill="#E5E3DF"/>
  <rect x="220" y="162" width="280" height="6" rx="3" fill="#F0EEEB"/>
  <rect x="220" y="178" width="260" height="6" rx="3" fill="#F0EEEB"/>
  <rect x="220" y="194" width="240" height="6" rx="3" fill="#F0EEEB"/>
  
  <!-- Section Divider -->
  <line x1="220" y1="220" x2="540" y2="220" stroke="#E5E3DF" stroke-width="1"/>
  
  <!-- Checklist Items -->
  <rect x="220" y="240" width="16" height="16" rx="4" fill="#2D7A5F"/>
  <path d="M224 248l3 3 6-6" stroke="white" stroke-width="1.5" stroke-linecap="round"/>
  <rect x="246" y="243" width="160" height="6" rx="3" fill="#1A2744" opacity="0.6"/>
  
  <rect x="220" y="270" width="16" height="16" rx="4" fill="#2D7A5F"/>
  <path d="M224 278l3 3 6-6" stroke="white" stroke-width="1.5" stroke-linecap="round"/>
  <rect x="246" y="273" width="200" height="6" rx="3" fill="#1A2744" opacity="0.6"/>
  
  <rect x="220" y="300" width="16" height="16" rx="4" fill="#2D7A5F"/>
  <path d="M224 308l3 3 6-6" stroke="white" stroke-width="1.5" stroke-linecap="round"/>
  <rect x="246" y="303" width="140" height="6" rx="3" fill="#1A2744" opacity="0.6"/>
  
  <rect x="220" y="330" width="16" height="16" rx="4" fill="#C9973E"/>
  <rect x="246" y="333" width="180" height="6" rx="3" fill="#1A2744" opacity="0.4"/>
  
  <!-- Signature Area -->
  <line x1="220" y1="380" x2="540" y2="380" stroke="#E5E3DF" stroke-width="1"/>
  <rect x="220" y="400" width="100" height="6" rx="3" fill="#C9973E" opacity="0.6"/>
  <rect x="220" y="416" width="140" height="6" rx="3" fill="#E5E3DF"/>
  <rect x="220" y="432" width="120" height="6" rx="3" fill="#E5E3DF"/>
  
  <!-- Decorative gold corner accent -->
  <path d="M540 40h40v60" stroke="#C9973E" stroke-width="3" fill="none" opacity="0.4" stroke-linecap="round"/>
  <path d="M180 480v-40h60" stroke="#C9973E" stroke-width="3" fill="none" opacity="0.4" stroke-linecap="round"/>
</svg>
