<svg width="300" height="220" viewBox="0 0 300 220" fill="none" xmlns="http://www.w3.org/2000/svg">
  <rect width="300" height="220" rx="16" fill="#FFF4F2"/>
  
  <!-- Document -->
  <rect x="60" y="30" width="180" height="160" rx="12" fill="white" stroke="#F4D1CC" stroke-width="1.5"/>
  
  <!-- Red header -->
  <rect x="60" y="30" width="180" height="40" rx="12" fill="#C0392B" opacity="0.1"/>
  <rect x="60" y="58" width="180" height="12" fill="#C0392B" opacity="0.1"/>
  
  <!-- X marks -->
  <circle cx="90" cy="50" r="10" fill="#C0392B" opacity="0.15"/>
  <path d="M86 46l8 8M94 46l-8 8" stroke="#C0392B" stroke-width="1.5" stroke-linecap="round"/>
  <rect x="108" y="46" width="100" height="5" rx="2.5" fill="#C0392B" opacity="0.3"/>
  
  <!-- Document lines with issues -->
  <rect x="80" y="85" width="140" height="5" rx="2.5" fill="#E5E3DF"/>
  <rect x="80" y="100" width="120" height="5" rx="2.5" fill="#E5E3DF"/>
  <rect x="80" y="115" width="100" height="5" rx="2.5" fill="#E5E3DF"/>
  
  <!-- Red warning line -->
  <rect x="80" y="100" width="120" height="5" rx="2.5" fill="#C0392B" opacity="0.2"/>
  <line x1="78" y1="102" x2="202" y2="102" stroke="#C0392B" stroke-width="1" stroke-dasharray="3,2"/>
  
  <!-- Rejected stamp -->
  <g transform="translate(170, 150) rotate(-8)">
    <rect x="-38" y="-14" width="76" height="28" rx="4" fill="none" stroke="#C0392B" stroke-width="2"/>
    <text x="0" y="5" text-anchor="middle" fill="#C0392B" font-size="11" font-weight="700" font-family="system-ui" letter-spacing="0.1em">REJECTED</text>
  </g>
</svg>
